<?xml version="1.0" standalone="no"?>
<!DOCTYPE svg PUBLIC "-//W3C//DTD SVG 20010904//EN"
 "http://www.w3.org/TR/2001/REC-SVG-20010904/DTD/svg10.dtd">
<svg version="1.0" xmlns="http://www.w3.org/2000/svg"
 width="260.000000pt" height="260.000000pt" viewBox="0 0 260.000000 260.000000"
 preserveAspectRatio="xMidYMid meet">
<metadata>
Created by potrace 1.11, written by Peter Selinger 2001-2013
</metadata>
<g transform="translate(0.000000,260.000000) scale(0.100000,-0.100000)"
fill="#000000" stroke="none">
<path d="M1815 2254 c-5 -2 -8 -26 -7 -54 l4 -50 -56 0 c-31 0 -57 -3 -57 -7
-6 -42 -2 -153 6 -153 6 0 4 -4 -4 -9 -7 -5 -11 -13 -7 -19 10 -16 -5 -43 -23
-40 -9 1 -22 -1 -28 -5 -7 -5 -13 -4 -13 2 0 5 -8 8 -17 6 -10 -2 -21 -4 -25
-4 -4 -1 -6 -20 -4 -43 3 -64 -7 -75 -65 -68 -27 4 -49 4 -49 0 0 -4 -22 -4
-50 0 -27 4 -50 3 -50 -1 0 -4 -13 -4 -30 1 -16 5 -30 6 -30 2 0 -4 -63 -5
-140 -2 -77 3 -140 2 -140 -2 0 -4 -13 -3 -30 2 -16 5 -30 5 -30 2 0 -4 -15
-7 -32 -7 -33 0 -33 0 -32 -47 0 -27 -3 -48 -8 -48 -5 0 -7 -3 -5 -8 3 -4 -18
-7 -46 -7 -36 0 -51 -4 -50 -12 2 -7 0 -13 -5 -13 -4 0 -6 -18 -4 -40 3 -26 0
-40 -8 -40 -6 0 -8 -5 -4 -12 5 -7 3 -8 -6 -3 -20 12 -250 12 -250 0 0 -7 -3
-7 -8 0 -4 6 -69 10 -157 10 -88 0 -153 -4 -157 -10 -5 -7 -8 -7 -8 0 0 6 -18
10 -40 11 -23 0 -37 -3 -33 -9 4 -6 1 -7 -7 -2 -8 5 -35 9 -62 9 l-48 1 0
-111 c0 -123 0 -123 62 -118 23 2 41 -2 48 -11 10 -12 10 -15 -1 -15 -11 0
-11 -2 1 -10 8 -5 11 -10 5 -10 -8 0 -12 -69 -5 -90 1 -3 1 -24 0 -46 -1 -41
0 -42 34 -46 21 -2 36 0 36 7 0 6 3 7 8 0 4 -5 14 -10 22 -10 12 0 15 -13 15
-55 l0 -54 170 -1 170 0 1 -30 c0 -16 -3 -35 -7 -40 -4 -6 -1 -21 6 -35 8 -14
14 -20 15 -15 0 12 99 14 118 2 6 -5 12 -4 12 1 0 11 50 10 67 -1 6 -4 13 -1
16 5 3 10 7 10 19 1 8 -7 18 -10 22 -6 11 11 236 9 236 -2 0 -6 3 -5 8 1 7 11
39 11 50 0 3 -4 5 -28 3 -55 -2 -42 1 -49 18 -54 12 -3 21 -2 21 2 0 4 15 5
34 3 34 -4 54 -26 35 -37 -5 -4 -6 -12 -2 -18 11 -16 10 -117 0 -117 -4 0 -5
-6 0 -12 8 -13 9 -18 12 -38 0 -6 23 -8 51 -6 55 4 52 8 53 -71 0 -24 2 -41 4
-39 2 2 20 0 39 -4 18 -4 34 -4 34 0 0 5 9 6 19 3 18 -4 37 -63 21 -63 -4 0
-5 -11 -2 -25 4 -23 8 -25 61 -25 l57 0 -2 55 -1 55 52 0 c50 0 84 17 67 34
-11 11 -9 70 3 78 7 5 7 8 0 8 -11 0 -13 225 -2 236 4 4 1 14 -6 22 -9 12 -9
16 1 19 6 3 9 10 5 16 -11 18 -11 67 0 67 6 0 6 5 0 13 -5 6 -8 102 -8 212 l1
200 49 -1 c45 -1 82 15 68 30 -7 7 -10 84 -3 84 3 0 182 0 398 1 l392 1 0 114
0 115 -26 -5 c-18 -3 -23 -1 -18 7 5 8 3 9 -6 4 -19 -12 -61 -15 -54 -4 3 5 2
9 -3 9 -4 0 -8 14 -8 30 0 17 3 30 7 30 15 0 -5 39 -23 43 -10 3 -19 2 -19 -1
0 -4 -13 -7 -30 -7 -16 0 -30 4 -30 8 0 5 -4 6 -8 3 -5 -3 -7 16 -7 42 1 26 0
52 -2 58 -4 12 -32 12 -51 0 -6 -4 -12 -3 -12 2 0 5 -10 9 -22 8 -21 -1 -23 4
-23 44 -1 47 -11 74 -25 65 -5 -3 -12 -1 -15 5 -4 7 -11 7 -18 2 -7 -5 -20 -8
-31 -6 -23 3 -45 25 -31 30 6 2 9 22 7 44 l-4 40 -53 0 c-30 0 -57 5 -61 12
-5 7 -3 8 7 3 12 -7 12 -6 1 7 -12 16 -12 44 1 64 4 7 0 15 -9 18 -17 7 -203
7 -219 0z"/>
</g>
</svg>
